# AST/ASF file generated using VICON BodyLanguage
# -----------------------------------------------
:version 1.10
:name VICON
:units
  mass 1.0
  length 0.45
  angle deg
:documentation
   .ast/.asf automatically generated from VICON data using
   VICON BodyBuilder and BodyLanguage model FoxedUp or BRILLIANT.MOD
:root
   order TX TY TZ RX RY RZ
   axis XYZ
   position 0 0 0  
   orientation 0 0 0 
:bonedata
  begin
     id 1 
     name lhipjoint
     direction 0.64773 -0.699417 0.302095 
     length 2.48597 
     axis 0 0 0  XYZ
  end
  begin
     id 2 
     name lfemur
     direction 0.34202 -0.939693 0  
     length 6.71947  
     axis 0 0 20  XYZ
    dof rx ry rz
    limits (-160.0 20.0)
           (-70.0 70.0)
           (-60.0 70.0)
  end
  begin
     id 3 
     name ltibia
     direction 0.34202 -0.939693 0   
     length 8.08777   
     axis 0 0 20   XYZ
    dof rx
    limits (-10.0 170.0)
  end
  begin
     id 4 
     name lfoot
     direction 0.0808503 -0.222134 0.971658   
     length 2.08264   
     axis -90 7.62852e-016 20   XYZ
    dof rx rz
    limits (-45.0 90.0)
           (-70.0 20.0)
  end
  begin
     id 5 
     name ltoes
     direction 1.53502e-011 -4.22007e-011 1   
     length 1.04662   
     axis -90 7.62852e-016 20   XYZ
    dof rx
    limits (-90.0 20.0)
  end
  begin
     id 6 
     name rhipjoint
     direction -0.610924 -0.726792 0.313919   
     length 2.39233  
     axis 0 0 0  XYZ 
  end
  begin
     id 7 
     name rfemur
     direction -0.34202 -0.939693 0   
     length 6.96955   
     axis 0 0 -20   XYZ
    dof rx ry rz
    limits (-160.0 20.0)
           (-70.0 70.0)
           (-70.0 60.0)
  end
  begin
     id 8 
     name rtibia
     direction -0.34202 -0.939693 0   
     length 8.19584   
     axis 0 0 -20   XYZ
    dof rx
    limits (-10.0 170.0)
 end
 begin
     id 9 
     name rfoot
     direction -0.077777 -0.213691 0.9738   
     length 2.07539  
     axis -90 -7.62852e-016 -20   XYZ
    dof rx rz
    limits (-45.0 90.0)
           (-20.0 70.0)
  end
  begin
     id 10 
     name rtoes
     direction -1.53558e-011 -4.22006e-011 1   
     length 1.04381   
     axis -90 -7.62852e-016 -20   XYZ
    dof rx
    limits (-90.0 20.0)
  end
  begin
     id 11 
     name lowerback
     direction -0.00971646 0.996074 0.0879841   
     length 1.67643   
     axis 0 0 0   XYZ
    dof rx ry rz
    limits (-20.0 45.0)
           (-30.0 30.0)
           (-30.0 30.0)
  end
  begin
     id 12 
     name upperback
     direction 0.0127391 0.991676 0.128127   
     length 1.63741   
     axis 0 0 0   XYZ
    dof rx ry rz
    limits (-20.0 45.0)
           (-30.0 30.0)
           (-30.0 30.0)
  end
  begin
     id 13 
     name thorax
     direction 0.0167583 0.996049 0.0872067   
     length 1.65931   
     axis 0 0 0   XYZ
    dof rx ry rz
    limits (-20.0 45.0)
           (-30.0 30.0)
           (-30.0 30.0)
  end
  begin
     id 14 
     name lowerneck
     direction -0.0317829 0.998312 0.0486079   
     length 1.79021   
     axis 0 0 0   XYZ
    dof rx ry rz
    limits (-20.0 45.0)
           (-30.0 30.0)
           (-30.0 30.0)
  end
  begin
     id 15 
     name upperneck
     direction 0.0896851 0.972452 -0.215159   
     length 1.78797   
     axis 0 0 0   XYZ
    dof rx ry rz
    limits (-20.0 45.0)
           (-30.0 30.0)
           (-30.0 30.0)
  end
  begin
     id 16
     name head
     direction 0.0310949 0.996503 -0.0775582  
     length 1.81549  
     axis 0 0 0   XYZ
    dof rx ry rz
    limits (-20.0 45.0)
           (-30.0 30.0)
           (-30.0 30.0)
  end
  begin
     id 17 
     name lclavicle
     direction 0.853638 0.502051 -0.138733  
     length 3.31627  
     axis 0 0 0   XYZ
    dof ry rz
    limits (-20.0 10.0)
           (0.0 20.0)
  end
  begin
     id 18 
     name lhumerus
     direction 1 -4.48962e-011 -1.41788e-018   
     length 5.54893   
     axis 180 -30 -90   XYZ
    dof rx ry rz
    limits (-60.0 90.0)
           (-90.0 90.0)
           (-90.0 90.0)
  end
  begin
     id 19
     name lradius
     direction 1 -4.48962e-011 -4.95754e-027   
     length 3.02898   
     axis 180 -30 -90   XYZ
    dof rx
    limits (-10.0 170.0)
  end
  begin
     id 20
     name lwrist
     direction 1 -4.48952e-011 -1.03764e-026   
     length 1.51449   
     axis 9.09556e-015 90 90   XYZ
    dof ry
    limits (-180.0 0.0)
 end
  begin
     id 21 
     name lhand
     direction 1 -4.4902e-011 -2.07528e-026   
     length 0.640951   
     axis 1.3242e-014 90 90   XYZ
    dof rx rz
    limits (-90.0 90.0)
           (-45.0 45.0)
  end
  begin
     id 22 
     name lfingers
     direction 1 -4.49014e-011 -4.15056e-026   
     length 0.516751   
     axis 2.64841e-014 90 90   XYZ
    dof rx
    limits (0.0 90.0)
  end
  begin
     id 23
     name lthumb
     direction 0.707107 -6.35008e-011 0.707107   
     length 0.741954   
     axis -90 45 2.85299e-015   XYZ
    dof rx rz
    limits (-45.0 45.0)
           (-45.0 45.0)
  end
  begin
     id 24 
     name rclavicle
     direction -0.888531 0.455324 -0.0565039   
     length 3.20126  
     axis 0 0 0   XYZ 
    dof ry rz
    limits (-10.0 20.0)
           (-20.0 0.0)
  end
  begin
     id 25 
     name rhumerus
     direction -1 -4.48946e-011 -8.98298e-028  
     length 5.3519   
     axis 180 30 90   XYZ
    dof rx ry rz
    limits (-90.0 60.0)
           (-90.0 90.0)
           (-90.0 90.0)
  end
  begin
     id 26 
     name rradius
     direction -1 -4.4899e-011 -3.18779e-027   
     length 3.02531   
     axis 180 30 90   XYZ
    dof rx
    limits (-10.0 170.0)
  end
  begin
     id 27 
     name rwrist
     direction -1 -4.4897e-011 -1.03764e-026   
     length 1.51266   
     axis 9.09556e-015 -90 -90   XYZ
    dof ry
    limits (-180.0 0.0)
  end
  begin
     id 28
     name rhand
     direction -1 -4.48941e-011 -2.07528e-026   
     length 0.78389   
     axis 1.3242e-014 -90 -90   XYZ
    dof rx rz
    limits (-90.0 90.0)
           (-45.0 45.0)
  end
  begin
     id 29
     name rfingers
     direction -1 -4.49012e-011 -4.15056e-026   
     length 0.631992   
     axis 2.64841e-014 -90 -90   XYZ
    dof rx
    limits (0.0 90.0)
  end
  begin
     id 30
     name rthumb
     direction -0.707107 -6.3496e-011 0.707107   
     length 0.907418   
     axis -90 -45 -2.85299e-015   XYZ
    dof rx rz
    limits (-45.0 45.0)
           (-45.0 45.0)
  end
:hierarchy
  begin
    root lhipjoint rhipjoint lowerback
    lhipjoint lfemur
    lfemur ltibia
    ltibia lfoot
    lfoot ltoes
    rhipjoint rfemur
    rfemur rtibia
    rtibia rfoot
    rfoot rtoes
    lowerback upperback
    upperback thorax
    thorax lowerneck lclavicle rclavicle
    lowerneck upperneck
    upperneck head
    lclavicle lhumerus
    lhumerus lradius
    lradius lwrist
    lwrist lhand lthumb
    lhand lfingers
    rclavicle rhumerus
    rhumerus rradius
    rradius rwrist
    rwrist rhand rthumb
    rhand rfingers
  end

#!OML:ASF E:\Style3\Style3.ASF
:FULLY-SPECIFIED
:DEGREES
1184
root -1.16995 17.2584 1.26928 -706.725 121.496 -723.066
lowerback 15.168 -0.261878 10.2527
upperback -5.05036 3.6718 8.69424
thorax -14.4732 1.59067 3.02915
lowerneck -7.92564 5.26246 3.68931
upperneck 0.070533 7.74307 -16.6314
head 2.1775 3.72081 -5.2644
rclavicle 1.35174e-014 6.99722e-014
rhumerus 94.9724 -41.4165 -44.756
rradius 108.887
rwrist -66.6698
rhand 5.4276 17.5189
rfingers 7.12502
rthumb 30.7777 -9.92466
lclavicle 1.35174e-014 6.99722e-014
lhumerus -69.88 -26.0042 76.0282
lradius 59.748
lwrist 68.883
lhand 28.1716 31.0041
lfingers 7.12502
lthumb 52.0559 51.0765
rfemur -32.415 -15.93 20.2656
rtibia 40.5033
rfoot -21.5463 -20.6334
rtoes -20.2706
lfemur -38.3234 -6.90531 -13.9328
ltibia 29.5476
lfoot -8.21502 -11.9095
ltoes -18.5577
1185
root -1.17626 17.2542 1.26244 -706.604 121.32 -722.984
lowerback 15.2139 -0.254549 10.324
upperback -5.10582 3.7273 8.73673
thorax -14.571 1.6126 3.02728
lowerneck -8.01454 5.31781 3.70609
upperneck 0.191934 7.83556 -16.6627
head 2.23983 3.75614 -5.26725
rclavicle 1.98785e-014 -1.01778e-013
rhumerus 94.3876 -41.3146 -44.3849
rradius 109.147
rwrist -67.3787
rhand 5.60596 17.4953
rfingers 7.12502
rthumb 30.9478 -9.91615
lclavicle 1.98785e-014 -1.01778e-013
lhumerus -70.5943 -25.8176 77.1033
lradius 60.3622
lwrist 69.1696
lhand 28.4139 31.1432
lfingers 7.12502
lthumb 52.2755 51.0838
rfemur -32.5314 -15.9452 20.2935
rtibia 40.547
rfoot -21.4868 -20.4554
rtoes -19.991
lfemur -38.4577 -6.73938 -13.954
ltibia 29.7269
lfoot -8.24642 -11.8406
ltoes -18.1292
1186
root -1.17891 17.25 1.25757 -706.299 121.14 -722.728
lowerback 15.2756 -0.243017 10.4615
upperback -5.19644 3.81876 8.79633
thorax -14.7212 1.64637 3.00097
lowerneck -8.03235 5.36795 3.86613
upperneck 0.259929 7.90914 -16.8287
head 2.28524 3.78641 -5.33879
rclavicle 7.55382e-014 1.90833e-014
rhumerus 93.7593 -41.2033 -43.9765
rradius 109.373
rwrist -67.7739
rhand 5.51303 17.5913
rfingers 7.12502
rthumb 30.8592 -9.83696
lclavicle 7.55382e-014 1.90833e-014
lhumerus -71.3155 -25.6399 78.1371
lradius 61.0487
lwrist 69.4742
lhand 28.6391 31.4058
lfingers 7.12502
lthumb 52.4794 51.2223
rfemur -32.6836 -15.8825 20.4329
rtibia 40.5852
rfoot -21.445 -20.3137
rtoes -19.2235
lfemur -38.6271 -6.4943 -13.8826
ltibia 29.9199
lfoot -8.31512 -11.7965
ltoes -17.651
1187
root -1.18241 17.2477 1.25223 -706.085 120.939 -722.531
lowerback 15.3335 -0.249625 10.5132
upperback -5.23689 3.86526 8.89369
thorax -14.8161 1.67222 3.07502
lowerneck -8.03376 5.45988 3.96935
upperneck 0.256736 8.03737 -16.9862
head 2.31044 3.84919 -5.3958
rclavicle -5.00937e-014 -9.85972e-014
rhumerus 93.2618 -41.0057 -43.6363
rradius 109.638
rwrist -67.8885
rhand 5.26048 17.6346
rfingers 7.12502
rthumb 30.6184 -9.83893
lclavicle -5.00937e-014 -9.85972e-014
lhumerus -72.0057 -25.4093 79.1996
lradius 61.7603
lwrist 69.8244
lhand 28.5808 31.7515
lfingers 7.12502
lthumb 52.4266 51.6003
rfemur -32.7859 -15.8152 20.5181
rtibia 40.6104
rfoot -21.464 -20.1243
rtoes -19.3379
lfemur -38.7428 -6.23887 -13.8543
ltibia 30.1138
lfoot -8.31806 -11.7643
ltoes -16.9596
1188
root -1.18929 17.2446 1.24464 -706.015 120.709 -722.503
lowerback 15.3431 -0.25535 10.5174
upperback -5.24289 3.87972 8.96778
thorax -14.8378 1.68629 3.15497
lowerneck -8.06067 5.52211 3.86692
upperneck 0.169373 8.12313 -16.971
head 2.29356 3.89671 -5.36861
rclavicle 1.66979e-014 -8.90555e-014
rhumerus 92.8076 -40.8088 -43.3447
rradius 109.947
rwrist -68.0756
rhand 4.96051 17.4799
rfingers 7.12502
rthumb 30.3323 -10.0467
lclavicle 1.66979e-014 -8.90555e-014
lhumerus -72.6465 -25.1813 80.2797
lradius 62.4432
lwrist 70.2383
lhand 28.6837 32.1157
lfingers 7.12502
lthumb 52.5197 51.9075
rfemur -32.8953 -15.8037 20.4979
rtibia 40.6202
rfoot -21.4757 -19.8474
rtoes -20.1006
lfemur -38.8501 -5.94637 -13.9555
ltibia 30.2936
lfoot -8.34439 -11.8051
ltoes -16.6554
1189
root -1.19526 17.2429 1.23786 -705.935 120.5 -722.427
lowerback 15.3641 -0.280073 10.5729
upperback -5.22835 3.87596 9.03194
thorax -14.8387 1.68676 3.19903
lowerneck -8.1773 5.58682 3.75429
upperneck 0.126298 8.21628 -16.9176
head 2.30292 3.94173 -5.32466
rclavicle -4.13472e-014 2.22639e-014
rhumerus 92.4364 -40.5977 -43.1106
rradius 110.073
rwrist -68.2296
rhand 4.7832 17.4362
rfingers 7.12502
rthumb 30.1632 -10.1214
lclavicle -4.13472e-014 2.22639e-014
lhumerus -73.2054 -24.9823 81.2617
lradius 63.186
lwrist 70.7064
lhand 28.9427 32.781
lfingers 7.12502
lthumb 52.7539 52.428
rfemur -32.9569 -15.7811 20.5021
rtibia 40.6116
rfoot -21.4062 -19.6529
rtoes -20.4812
lfemur -38.9291 -5.65757 -14.0308
ltibia 30.4599
lfoot -8.40521 -11.8728
ltoes -16.7297
1190
root -1.20139 17.2434 1.22934 -705.861 120.245 -722.356
lowerback 15.4057 -0.282231 10.6267
upperback -5.2189 3.90415 9.08494
thorax -14.8571 1.70021 3.22274
lowerneck -8.2879 5.64204 3.78809
upperneck 0.141215 8.29866 -16.9981
head 2.34028 3.97671 -5.34626
rclavicle 2.22639e-014 3.18055e-015
rhumerus 92.0267 -40.4347 -42.8001
rradius 110.124
rwrist -68.3412
rhand 4.39053 17.5407
rfingers 7.12502
rthumb 29.7885 -10.0847
lclavicle 2.22639e-014 3.18055e-015
lhumerus -73.7985 -24.8672 82.2923
lradius 64.0066
lwrist 71.2616
lhand 29.3491 33.2723
lfingers 7.12502
lthumb 53.1208 52.6879
rfemur -33.0129 -15.7922 20.4979
rtibia 40.5829
rfoot -21.2731 -19.4666
rtoes -20.7696
lfemur -38.9986 -5.42024 -14.097
ltibia 30.6348
lfoot -8.46117 -11.8085
ltoes -16.7384
1191
root -1.20768 17.2417 1.21934 -705.778 119.967 -722.281
lowerback 15.4792 -0.272381 10.7253
upperback -5.21452 3.95806 9.1076
thorax -14.896 1.71729 3.17994
lowerneck -8.24251 5.66096 3.85251
upperneck -0.0269332 8.30422 -17.0972
head 2.29199 3.99013 -5.39014
rclavicle -2.14687e-014 1.36764e-013
rhumerus 91.5607 -40.3842 -42.3967
rradius 110.222
rwrist -68.654
rhand 3.80808 17.6582
rfingers 7.12502
rthumb 29.2325 -10.0653
lclavicle -2.14687e-014 1.36764e-013
lhumerus -74.3339 -24.8794 83.3235
lradius 64.7235
lwrist 71.8041
lhand 29.9937 33.3129
lfingers 7.12502
lthumb 53.7013 52.3509
rfemur -33.0686 -15.8109 20.4951
rtibia 40.5559
rfoot -21.1301 -19.2436
rtoes -21.2004
lfemur -39.0613 -5.18132 -14.1511
ltibia 30.8018
lfoot -8.48727 -11.7889
ltoes -16.3985
1192
root -1.21508 17.2385 1.20958 -705.575 119.698 -722.106
lowerback 15.5454 -0.262671 10.8658
upperback -5.21108 4.02475 9.14407
thorax -14.9311 1.73848 3.12642
lowerneck -8.28728 5.70206 3.91691
upperneck -0.103068 8.35317 -17.1989
head 2.29066 4.01617 -5.42837
rclavicle 2.8625e-014 2.22639e-014
rhumerus 91.1597 -40.273 -42.0537
rradius 110.317
rwrist -69.1402
rhand 3.38485 17.6223
rfingers 7.12502
rthumb 28.8282 -10.1708
lclavicle 2.8625e-014 2.22639e-014
lhumerus -74.8291 -24.859 84.2504
lradius 65.5441
lwrist 72.1923
lhand 30.4723 33.3866
lfingers 7.12502
lthumb 54.1311 52.1356
rfemur -33.1595 -15.8145 20.5552
rtibia 40.5314
rfoot -20.9852 -19.0204
rtoes -21.9634
lfemur -39.163 -4.97365 -14.1288
ltibia 30.9747
lfoot -8.55718 -11.7097
ltoes -16.119
1193
root -1.22135 17.2348 1.20115 -705.584 119.376 -722.135
lowerback 15.6329 -0.2512 10.8506
upperback -5.19393 4.05314 9.16605
thorax -14.9675 1.75319 3.1521
lowerneck -8.3438 5.77338 3.87128
upperneck -0.136922 8.44353 -17.118
head 2.2935 4.06076 -5.38859
rclavicle 1.74931e-014 6.67916e-014
rhumerus 90.7402 -40.0607 -41.7685
rradius 110.455
rwrist -69.5416
rhand 2.9953 17.5645
rfingers 7.12502
rthumb 28.4561 -10.2915
lclavicle 1.74931e-014 6.67916e-014
lhumerus -75.4418 -24.7082 85.0928
lradius 66.6624
lwrist 72.4387
lhand 30.7833 33.8376
lfingers 7.12502
lthumb 54.4097 52.3948
rfemur -33.2474 -15.7881 20.4895
rtibia 40.5327
rfoot -20.8539 -18.8182
rtoes -22.3249
lfemur -39.2137 -4.71081 -14.247
ltibia 31.1239
lfoot -8.63724 -11.6611
ltoes -15.9882
1194
root -1.22855 17.2318 1.19293 -705.624 119.048 -722.171
lowerback 15.743 -0.244427 10.8287
upperback -5.14121 4.07039 9.18734
thorax -14.9745 1.76376 3.18157
lowerneck -8.34755 5.83374 3.84639
upperneck -0.333 8.50009 -17.0811
head 2.23953 4.10006 -5.37152
rclavicle 1.51076e-014 -1.87653e-013
rhumerus 90.4363 -39.9623 -41.5291
rradius 110.505
rwrist -69.9796
rhand 2.58324 17.6
rfingers 7.12502
rthumb 28.0622 -10.3212
lclavicle 1.51076e-014 -1.87653e-013
lhumerus -76.0079 -24.5316 85.8888
lradius 67.8478
lwrist 72.6336
lhand 31.0586 34.1852
lfingers 7.12502
lthumb 54.6561 52.5697
rfemur -33.3156 -15.7552 20.4109
rtibia 40.5332
rfoot -20.7731 -18.5598
rtoes -22.4451
lfemur -39.2287 -4.41721 -14.3833
ltibia 31.2491
lfoot -8.72451 -11.6436
ltoes -16.4251
1195
root -1.23186 17.2328 1.18737 -705.78 118.596 -722.28
lowerback 15.935 -0.229072 10.6561
upperback -5.08288 4.07495 9.20605
thorax -15.0317 1.77919 3.29531
lowerneck -8.35519 5.92517 3.9634
upperneck -0.434336 8.60263 -17.1531
head 2.2311 4.15447 -5.40686
rclavicle 5.56597e-015 -4.45278e-014
rhumerus 90.278 -39.8252 -41.4238
rradius 110.522
rwrist -70.5087
rhand 2.3814 17.4566
rfingers 7.12502
rthumb 27.8693 -10.496
lclavicle 5.56597e-015 -4.45278e-014
lhumerus -76.591 -24.4327 86.6634
lradius 69.0455
lwrist 72.8193
lhand 31.099 34.5024
lfingers 7.12502
lthumb 54.6922 52.8614
rfemur -33.3285 -15.5904 20.2616
rtibia 40.5501
rfoot -20.6961 -18.3863
rtoes -22.6719
lfemur -39.0883 -4.00472 -14.5785
ltibia 31.2973
lfoot -8.72714 -11.667
ltoes -16.0656
1196
root -1.23085 17.2365 1.18538 -705.783 118.063 -722.288
lowerback 16.0489 -0.150193 10.424
upperback -5.03911 4.14107 9.23155
thorax -15.0608 1.82997 3.43253
lowerneck -8.35734 5.97145 4.04842
upperneck -0.493123 8.64634 -17.1623
head 2.22312 4.17758 -5.42134
rclavicle 4.13472e-014 -1.24042e-013
rhumerus 90.0985 -39.7638 -41.2884
rradius 110.53
rwrist -70.8993
rhand 2.11736 17.2999
rfingers 7.12502
rthumb 27.6168 -10.6934
lclavicle 4.13472e-014 -1.24042e-013
lhumerus -77.18 -24.6068 87.5321
lradius 70.2877
lwrist 73.0078
lhand 30.8818 34.6883
lfingers 7.12502
lthumb 54.4979 53.184
rfemur -33.3907 -15.2838 20.1731
rtibia 40.5486
rfoot -20.648 -18.2344
rtoes -23.0622
lfemur -38.9764 -3.49736 -14.7234
ltibia 31.324
lfoot -8.85618 -11.6394
ltoes -16.1579
1197
root -1.23492 17.243 1.18152 -705.85 117.554 -722.395
lowerback 16.1114 -0.0854105 10.1792
upperback -4.95153 4.16889 9.26458
thorax -15.0061 1.86706 3.59337
lowerneck -8.36919 6.03117 4.03332
upperneck -0.663619 8.7043 -17.1323
head 2.17898 4.21534 -5.40751
rclavicle 4.77083e-015 -1.33583e-013
rhumerus 90.1195 -39.7201 -41.3085
rradius 110.54
rwrist -71.0881
rhand 1.90526 17.2501
rfingers 7.12502
rthumb 27.414 -10.7754
lclavicle 4.77083e-015 -1.33583e-013
lhumerus -77.6119 -24.7044 88.3064
lradius 71.4929
lwrist 73.255
lhand 30.8064 34.7074
lfingers 7.12502
lthumb 54.4305 53.2501
rfemur -33.5228 -14.9886 20.0216
rtibia 40.5537
rfoot -20.6019 -17.9798
rtoes -22.8707
lfemur -38.897 -3.04626 -14.9097
ltibia 31.3253
lfoot -8.90192 -11.5887
ltoes -16.0186
1198
root -1.24169 17.2479 1.17324 -705.724 117.122 -722.273
lowerback 16.1476 -0.0987521 10.158
upperback -4.84559 4.14335 9.32107
thorax -14.906 1.86419 3.6718
lowerneck -8.30791 6.10615 3.99162
upperneck -0.912249 8.77905 -17.1347
head 2.10219 4.26938 -5.40139
rclavicle 0 9.22361e-014
rhumerus 90.1812 -39.64 -41.3865
rradius 110.652
rwrist -70.9508
rhand 1.74318 17.3555
rfingers 7.12502
rthumb 27.2589 -10.6945
lclavicle 0 9.22361e-014
lhumerus -77.9911 -24.723 88.937
lradius 72.7262
lwrist 73.4799
lhand 30.7247 34.9778
lfingers 7.12502
lthumb 54.3572 53.5714
rfemur -33.6545 -14.835 20.0007
rtibia 40.5605
rfoot -20.5544 -17.6502
rtoes -22.4476
lfemur -38.8492 -2.63624 -14.9864
ltibia 31.3528
lfoot -8.94293 -11.5385
ltoes -15.8478
